<svg width="80" height="80" viewBox="0 0 80 80" fill="none" xmlns="http://www.w3.org/2000/svg">
<path d="M72 2.46667H8C3.664 2.46667 0 5.85587 0 9.86667V50.5667C0 54.5775 3.664 57.9667 8 57.9667H18.6667V70.3C18.6667 70.8094 19.0053 71.2669 19.5187 71.4507C19.676 71.5062 19.8387 71.5333 20 71.5333C20.368 71.5333 20.7293 71.3915 20.9867 71.13L33.9227 57.9667H72C76.336 57.9667 80 54.5775 80 50.5667V9.86667C80 5.85587 76.336 2.46667 72 2.46667ZM77.3333 50.5667C77.3333 53.2405 74.8907 55.5 72 55.5H36.2387L41.0107 50.3681C41.4907 49.8526 41.428 49.0731 40.8693 48.6291C40.312 48.1851 39.468 48.2443 38.988 48.7598L32.324 55.9267L21.3333 67.1106V56.7333C21.3333 56.0525 20.736 55.5 20 55.5H8C5.10933 55.5 2.66667 53.2405 2.66667 50.5667V9.86667C2.66667 7.19281 5.10933 4.93334 8 4.93334H72C74.8907 4.93334 77.3333 7.19281 77.3333 9.86667V50.5667Z" fill="#AEAEAE"/>
</svg>
