<svg width="80" height="80" viewBox="0 0 81 74" fill="none" xmlns="http://www.w3.org/2000/svg">
<path d="M40.5 12.0652C41.4685 12.0652 42.2609 11.3413 42.2609 10.4565V9.65219C42.2609 8.76742 41.4685 8.04352 40.5 8.04352C39.5315 8.04352 38.7391 8.76742 38.7391 9.65219V10.4565C38.7391 11.3413 39.5315 12.0652 40.5 12.0652Z" fill="#AEAEAE"/>
<path d="M40.5 61.935C39.5315 61.935 38.7391 62.6589 38.7391 63.5437V64.348C38.7391 65.2328 39.5315 65.9567 40.5 65.9567C41.4685 65.9567 42.2609 65.2328 42.2609 64.348V63.5437C42.2609 62.6589 41.4685 61.935 40.5 61.935Z" fill="#AEAEAE"/>
<path d="M11.4457 35.3915H10.5652C9.59674 35.3915 8.80435 36.1155 8.80435 37.0002C8.80435 37.885 9.59674 38.6089 10.5652 38.6089H11.4457C12.4141 38.6089 13.2065 37.885 13.2065 37.0002C13.2065 36.1155 12.4141 35.3915 11.4457 35.3915Z" fill="#AEAEAE"/>
<path d="M70.4348 35.3915H69.5544C68.5859 35.3915 67.7935 36.1155 67.7935 37.0002C67.7935 37.885 68.5859 38.6089 69.5544 38.6089H70.4348C71.4033 38.6089 72.1957 37.885 72.1957 37.0002C72.1957 36.1155 71.4033 35.3915 70.4348 35.3915Z" fill="#AEAEAE"/>
<path d="M20.6022 16.5696C19.8978 15.9261 18.8413 15.9261 18.137 16.5696C17.4326 17.2131 17.4326 18.1783 18.137 18.8218L18.7533 19.3848C19.1054 19.7065 19.5457 19.8674 19.9859 19.8674C20.4261 19.8674 20.8663 19.7065 21.2185 19.3848C21.9228 18.7413 21.9228 17.7761 21.2185 17.1326L20.6022 16.5696Z" fill="#AEAEAE"/>
<path d="M18.7533 54.6152L18.137 55.1782C17.4326 55.8217 17.4326 56.7869 18.137 57.4304C18.4891 57.7521 18.9294 57.913 19.3696 57.913C19.8098 57.913 20.25 57.7521 20.6022 57.4304L21.2185 56.8673C21.9228 56.2239 21.9228 55.2587 21.2185 54.6152C20.5141 53.9717 19.4576 53.9717 18.7533 54.6152Z" fill="#AEAEAE"/>
<path d="M60.3978 16.5696L59.7815 17.1326C59.0772 17.7761 59.0772 18.7413 59.7815 19.3848C60.1337 19.7065 60.5739 19.8674 61.0141 19.8674C61.4543 19.8674 61.8945 19.7065 62.2467 19.3848L62.863 18.8218C63.5674 18.1783 63.5674 17.2131 62.863 16.5696C62.1587 15.9261 61.1022 15.9261 60.3978 16.5696Z" fill="#AEAEAE"/>
<path d="M42.2609 36.3563V21.7172C42.2609 20.8324 41.4685 20.1085 40.5 20.1085C39.5315 20.1085 38.7391 20.8324 38.7391 21.7172V36.9998C38.7391 37.4019 38.9152 37.8041 39.2674 38.1259L58.5489 55.7411C58.9011 56.0628 59.3413 56.2237 59.7815 56.2237C60.2217 56.2237 60.6619 56.0628 61.0141 55.7411C61.7184 55.0976 61.7184 54.1324 61.0141 53.4889L42.2609 36.3563Z" fill="#AEAEAE"/>
<path d="M40.5 0C18.137 0 0 16.5696 0 37C0 57.4304 18.137 74 40.5 74C62.863 74 81 57.4304 81 37C81 16.5696 62.863 0 40.5 0ZM40.5 70.7826C20.0739 70.7826 3.52174 55.6609 3.52174 37C3.52174 18.3391 20.0739 3.21739 40.5 3.21739C60.9261 3.21739 77.4783 18.3391 77.4783 37C77.4783 55.6609 60.9261 70.7826 40.5 70.7826Z" fill="#AEAEAE"/>
</svg>
