<svg width="80" height="80" viewBox="0 0 53 49" fill="none" xmlns="http://www.w3.org/2000/svg">
<g clip-path="url(#clip0)">
<path d="M46.4128 44.5633C34.4235 48.8347 20.9538 43.3 16.3338 32.2005C16.2524 31.9899 16.1711 31.7944 16.0898 31.5839H40.1334C41.0281 31.5839 41.7602 30.9071 41.7602 30.0799C41.7602 29.2527 41.0281 28.5759 40.1334 28.5759H15.2276C14.7395 26.1996 14.6907 23.748 15.0649 21.3567H42.7362C43.631 21.3567 44.363 20.6799 44.363 19.8527C44.363 19.0255 43.631 18.3487 42.7362 18.3487H15.7969C19.4897 6.9785 32.4713 0.526366 44.786 3.94043C45.3228 4.09083 45.8759 4.25627 46.429 4.45179C47.2587 4.75259 48.2022 4.37659 48.5438 3.59452C48.8692 2.82748 48.4625 1.95516 47.6166 1.63932H47.6003C33.9354 -3.21858 18.595 3.08316 13.3243 15.7167C12.9664 16.574 12.6573 17.4463 12.4133 18.3337H5.97125C5.07653 18.3337 4.34448 19.0105 4.34448 19.8377C4.34448 20.6649 5.07653 21.3417 5.97125 21.3417H11.7788C11.4535 23.748 11.5023 26.1695 11.9252 28.5608H5.97125C5.07653 28.5608 4.34448 29.2376 4.34448 30.0648C4.34448 30.892 5.07653 31.5688 5.97125 31.5688H12.6898C16.9357 44.5332 31.7393 51.8577 45.7458 47.9473C46.3639 47.7668 46.9821 47.5713 47.584 47.3608C48.4137 47.06 48.8366 46.1876 48.5113 45.4206C48.1859 44.6536 47.2424 44.2625 46.4128 44.5633Z" fill="#AEAEAE"/>
</g>
<defs>
<clipPath id="clip0">
<rect width="53" height="49" fill="white"/>
</clipPath>
</defs>
</svg>
