<svg width="80" height="80" viewBox="0 0 82 74" fill="#AEAEAE" xmlns="http://www.w3.org/2000/svg">
<path d="M21.0541 25.86C20.9085 25.8623 20.7639 25.8387 20.6285 25.7906C20.4931 25.7424 20.3695 25.6707 20.2648 25.5795C20.0534 25.3952 19.9317 25.1427 19.9266 24.8775C19.9214 24.6123 20.0332 24.3561 20.2374 24.1653C20.4416 23.9744 20.7214 23.8646 21.0153 23.86C26.4525 23.8052 31.8779 23.3907 37.2479 22.62C37.3433 22.602 37.441 22.596 37.5382 22.602C38.8842 22.6662 40.1901 23.0378 41.3335 23.682C41.5223 23.8058 41.663 23.9802 41.7355 24.1804C41.808 24.3806 41.8086 24.5963 41.7372 24.7968C41.6659 24.9973 41.5262 25.1724 41.3381 25.297C41.15 25.4217 40.9231 25.4896 40.6897 25.491C40.4287 25.4909 40.1757 25.4101 39.9728 25.262C39.2257 24.8756 38.3891 24.652 37.5294 24.609C32.0874 25.3806 26.5911 25.7987 21.0829 25.86H21.0541Z" fill="#current"/>
<path d="M61.5886 49.65C60.6432 49.6511 59.7217 49.3815 58.9569 48.88L58.7186 48.731C58.6876 48.712 58.6355 48.674 58.5867 48.631L45.5432 40.154C45.4214 40.079 45.3175 39.9828 45.2374 39.8711C45.1573 39.7594 45.1028 39.6343 45.077 39.5033C45.0511 39.3723 45.0545 39.238 45.0869 39.1082C45.1193 38.9784 45.1801 38.8558 45.2657 38.7474C45.3513 38.6391 45.46 38.5473 45.5854 38.4773C45.7109 38.4074 45.8505 38.3608 45.9962 38.3401C46.1418 38.3195 46.2906 38.3253 46.4337 38.3572C46.5768 38.3892 46.7115 38.4465 46.8297 38.526L47.7162 39.096L59.922 47.039C59.9585 47.0626 59.9933 47.0883 60.0262 47.116L60.2378 47.249C60.7185 47.5599 61.313 47.6925 61.8988 47.6193C62.4845 47.5462 63.0169 47.273 63.386 46.856C63.6124 46.5981 63.7667 46.2949 63.8359 45.9718C63.9052 45.6488 63.8873 45.3155 63.7838 45C63.6593 44.6026 63.402 44.2495 63.0469 43.989L45.6008 31.162C38.9201 34.362 34.1873 32.716 31.9279 31.413C31.5545 31.1937 31.2513 30.8899 31.0486 30.5318C30.8459 30.1738 30.7508 29.7741 30.7726 29.3725C30.7945 28.9709 30.9326 28.5815 31.1732 28.2432C31.4139 27.9048 31.7486 27.6292 32.144 27.444L42.1302 22.658C42.7677 22.3571 43.4648 22.173 44.1814 22.1164C44.898 22.0597 45.6199 22.1316 46.3056 22.328L52.2129 24.058C53.9521 24.5742 55.8384 24.5128 57.5318 23.885L60.1048 22.934C60.2395 22.8842 60.3838 22.8588 60.5293 22.8592C60.6749 22.8597 60.8189 22.886 60.9532 22.9367C61.0875 22.9874 61.2094 23.0615 61.3119 23.1547C61.4145 23.2479 61.4957 23.3585 61.5509 23.48C61.6062 23.6015 61.6343 23.7317 61.6338 23.8631C61.6333 23.9944 61.6041 24.1244 61.5479 24.2456C61.4917 24.3668 61.4096 24.4768 61.3064 24.5693C61.2031 24.6619 61.0806 24.7352 60.9459 24.785L58.3751 25.735C56.1945 26.545 53.7647 26.6245 51.5248 25.959L45.623 24.23C45.2188 24.1154 44.7934 24.0741 44.3714 24.1084C43.9494 24.1427 43.5391 24.252 43.1641 24.43L33.1756 29.217C33.12 29.2406 33.0728 29.2777 33.0391 29.3242C33.0055 29.3706 32.9868 29.4245 32.985 29.48C32.9805 29.5302 32.9913 29.5805 33.0163 29.6255C33.0413 29.6705 33.0796 29.7084 33.1269 29.735C35.4539 31.077 39.4486 32.061 45.1676 29.096C45.3621 28.9952 45.5859 28.95 45.8095 28.9664C46.0331 28.9828 46.2459 29.0601 46.4197 29.188L64.4375 42.438C65.1441 42.9524 65.6579 43.6507 65.9091 44.438C66.1081 45.0577 66.1416 45.7111 66.0068 46.3446C65.8719 46.9782 65.5726 47.5739 65.1334 48.083C64.715 48.5718 64.1778 48.9672 63.5632 49.2389C62.9486 49.5106 62.273 49.6513 61.5886 49.65Z" fill="#current"/>
<path d="M57.0033 54.285C56.0642 54.2859 55.1482 54.0227 54.3826 53.532L42.404 45.862C42.1699 45.7066 42.0128 45.4745 41.9666 45.2156C41.9204 44.9567 41.9887 44.6918 42.1568 44.4779C42.3249 44.264 42.5794 44.1183 42.8655 44.0721C43.1515 44.0259 43.4462 44.083 43.686 44.231L55.6647 51.9C56.1673 52.1962 56.7772 52.3058 57.3672 52.2057C57.9571 52.1056 58.4814 51.8036 58.8304 51.3629C59.1794 50.9222 59.3263 50.3768 59.2402 49.8407C59.1541 49.3046 58.8418 48.8192 58.3685 48.486L46.4297 40.721C46.2097 40.5604 46.0661 40.3298 46.0284 40.0767C45.9907 39.8235 46.0618 39.567 46.2271 39.3596C46.3924 39.1523 46.6393 39.0098 46.9172 38.9616C47.1952 38.9133 47.483 38.9628 47.7218 39.1L59.6638 46.866C60.4412 47.3739 61.0203 48.0909 61.3183 48.9141C61.6162 49.7374 61.6177 50.6246 61.3223 51.4486C61.027 52.2727 60.4502 52.9911 59.6745 53.5011C58.8988 54.011 57.9641 54.2861 57.0044 54.287L57.0033 54.285Z" fill="#current"/>
<path d="M51.8318 58.292C50.9398 58.2917 50.0694 58.045 49.3374 57.585L38.6032 50.875C38.3614 50.724 38.1961 50.4924 38.1435 50.2314C38.0909 49.9703 38.1554 49.7011 38.3228 49.483C38.4902 49.2649 38.7467 49.1156 39.036 49.0682C39.3253 49.0208 39.6236 49.079 39.8653 49.23L50.5996 55.94C50.8353 56.0871 51.1008 56.1909 51.381 56.2454C51.6612 56.2999 51.9505 56.3041 52.2325 56.2577C52.5144 56.2112 52.7835 56.1151 53.0243 55.9748C53.265 55.8345 53.4728 55.6528 53.6358 55.44C53.9601 55.0134 54.086 54.489 53.9866 53.9795C53.8871 53.4699 53.5702 53.016 53.1039 52.715L42.4217 45.877C42.3003 45.8021 42.1966 45.706 42.1167 45.5945C42.0368 45.4831 41.9823 45.3583 41.9564 45.2276C41.9305 45.0969 41.9336 44.9629 41.9657 44.8333C41.9979 44.7037 42.0582 44.5812 42.1434 44.4729C42.2285 44.3646 42.3367 44.2727 42.4616 44.2026C42.5865 44.1324 42.7256 44.0854 42.8709 44.0643C43.0161 44.0431 43.1646 44.0483 43.3076 44.0795C43.4506 44.1107 43.5853 44.1673 43.7038 44.246L54.386 51.084C55.3262 51.6904 55.9654 52.6055 56.1662 53.6326C56.367 54.6597 56.1133 55.7168 55.4597 56.577C55.1332 57.0069 54.7154 57.3741 54.2306 57.6573C53.7457 57.9405 53.2035 58.1341 52.6352 58.227C52.3701 58.2707 52.1012 58.2924 51.8318 58.292Z" fill="#current"/>
<path d="M45.5 61.58C44.7247 61.5766 43.964 61.3897 43.2938 61.038L37.3355 57.938C37.0831 57.8045 36.8994 57.5862 36.8246 57.3309C36.7498 57.0756 36.79 56.804 36.9363 56.5753C37.0826 56.3466 37.3232 56.1795 37.6056 56.1103C37.888 56.0411 38.1892 56.0755 38.4436 56.206L44.4008 59.306C44.9044 59.5625 45.4992 59.6312 46.0582 59.4975C46.6172 59.3637 47.0961 59.038 47.3927 58.59C47.6744 58.1605 47.764 57.6502 47.6431 57.1632C47.5223 56.6761 47.2001 56.249 46.7422 55.969L39.1295 51.21C39.0099 51.1352 38.9078 51.0399 38.829 50.9295C38.7502 50.8191 38.6963 50.6958 38.6703 50.5666C38.6443 50.4373 38.6468 50.3048 38.6776 50.1764C38.7084 50.0481 38.7669 49.9265 38.8497 49.8185C38.9326 49.7106 39.0382 49.6184 39.1606 49.5473C39.2829 49.4762 39.4196 49.4275 39.5627 49.4041C39.7059 49.3806 39.8528 49.3829 39.995 49.4106C40.1373 49.4384 40.272 49.4912 40.3917 49.566L48.0032 54.324C48.7759 54.8068 49.3577 55.4995 49.6637 56.3014C49.9697 57.1033 49.984 57.9724 49.7045 58.7822C49.4251 59.5919 48.8664 60.3 48.1099 60.8032C47.3535 61.3065 46.4387 61.5786 45.4989 61.58H45.5Z" fill="#current"/>
<path d="M32.9529 60.983C32.0464 60.9842 31.161 60.7358 30.415 60.271C29.669 59.8061 29.098 59.1469 28.7781 58.3815C28.4582 57.616 28.4047 56.7806 28.6248 55.987C28.8449 55.1934 29.3281 54.4792 30.0098 53.94L32.9696 51.6C33.4094 51.2515 33.921 50.9846 34.4751 50.8146C35.0292 50.6446 35.615 50.5747 36.199 50.6089C36.7831 50.6432 37.3539 50.7809 37.879 51.0143C38.4041 51.2477 38.873 51.5721 39.2592 51.969C39.6452 52.366 39.9409 52.8277 40.1292 53.3278C40.3176 53.8279 40.3949 54.3565 40.3568 54.8836C40.3188 55.4107 40.166 55.9258 39.9073 56.3996C39.6486 56.8734 39.2891 57.2966 38.8492 57.645L35.8894 59.99C35.0771 60.6323 34.033 60.9854 32.9529 60.983ZM35.9083 52.6C35.3648 52.5987 34.8396 52.7765 34.4311 53.1L31.4703 55.443C31.2491 55.6181 31.0683 55.8308 30.9382 56.069C30.8081 56.3072 30.7313 56.5661 30.7121 56.8311C30.6929 57.0961 30.7317 57.3619 30.8264 57.6133C30.921 57.8647 31.0696 58.0969 31.2636 58.2965C31.6555 58.6996 32.2088 58.9457 32.8018 58.9807C33.0954 58.998 33.3899 58.963 33.6686 58.8776C33.9472 58.7922 34.2044 58.6581 34.4256 58.483L37.3854 56.138C37.7268 55.8668 37.9686 55.5082 38.0786 55.1099C38.1887 54.7116 38.1617 54.2925 38.0013 53.9084C37.841 53.5243 37.5548 53.1934 37.1809 52.9596C36.807 52.7259 36.3631 52.6005 35.9083 52.6Z" fill="#current"/>
<path d="M26.2444 58.259C26.1458 58.259 26.0471 58.259 25.9485 58.251C25.3641 58.218 24.7928 58.0808 24.2674 57.8474C23.7421 57.614 23.2733 57.2889 22.8879 56.891C22.4965 56.494 22.1959 56.0311 22.0032 55.529C21.8105 55.0268 21.7296 54.4953 21.7651 53.9649C21.8006 53.4344 21.9519 52.9155 22.2102 52.438C22.4684 51.9604 22.8287 51.5336 23.2702 51.182L28.2146 47.265C28.6544 46.9166 29.166 46.6497 29.7201 46.4796C30.2742 46.3096 30.8601 46.2397 31.4441 46.274C32.0281 46.3082 32.599 46.446 33.124 46.6793C33.6491 46.9127 34.1181 47.2371 34.5042 47.634L33.7031 48.327L34.5352 47.667C34.9215 48.0639 35.2174 48.5255 35.4059 49.0256C35.5944 49.5257 35.6719 50.0544 35.6339 50.5815C35.5959 51.1086 35.4432 51.6238 35.1846 52.0976C34.9259 52.5714 34.5663 52.9946 34.1264 53.343L29.1775 57.26C28.3679 57.9052 27.3245 58.2605 26.2444 58.259ZM31.1478 48.265C30.605 48.2637 30.0804 48.4415 29.6729 48.765L24.7285 52.682C24.3975 52.9517 24.1616 53.3033 24.0504 53.6931C23.9391 54.0828 23.9573 54.4935 24.1027 54.874C24.248 55.2545 24.5142 55.588 24.868 55.833C25.2218 56.078 25.6477 56.2238 26.0926 56.252C26.3864 56.2702 26.6813 56.2354 26.96 56.1495C27.2388 56.0637 27.4958 55.9285 27.716 55.752L32.6603 51.835C32.8816 51.6599 33.0624 51.4471 33.1925 51.2089C33.3226 50.9706 33.3994 50.7116 33.4185 50.4466C33.4377 50.1815 33.3988 49.9157 33.304 49.6642C33.2093 49.4128 33.0606 49.1806 32.8664 48.981L32.8343 48.948C32.6409 48.7492 32.4059 48.5868 32.1427 48.4703C31.8794 48.3537 31.5933 48.2853 31.3007 48.269C31.2486 48.267 31.1965 48.266 31.1467 48.266L31.1478 48.265Z" fill="#current"/>
<path d="M20.6529 54.588C20.5554 54.588 20.4567 54.588 20.357 54.58C19.7726 54.547 19.2012 54.4098 18.6759 54.1764C18.1506 53.9429 17.6817 53.6179 17.2964 53.22L17.1756 53.09C16.3968 52.2882 16.0025 51.2402 16.0796 50.1762C16.1567 49.1122 16.6988 48.1194 17.5868 47.416L23.319 42.875C23.7588 42.5264 24.2703 42.2594 24.8244 42.0893C25.3786 41.9192 25.9644 41.8493 26.5485 41.8835C27.1326 41.9178 27.7035 42.0556 28.2285 42.289C28.7536 42.5224 29.2225 42.847 29.6086 43.244L29.7338 43.373C30.513 44.1746 30.9074 45.2228 30.8303 46.2868C30.7532 47.3509 30.2109 48.3437 29.3227 49.047L23.5905 53.588C22.7797 54.2343 21.7346 54.59 20.6529 54.588ZM26.2521 43.876C25.7094 43.8747 25.1849 44.0526 24.7773 44.376L19.045 48.917C18.5979 49.2709 18.3249 49.7707 18.2861 50.3063C18.2472 50.8419 18.4457 51.3694 18.8378 51.773L18.963 51.902C19.3554 52.3044 19.9088 52.5498 20.5015 52.5843C21.0943 52.6188 21.678 52.4396 22.1244 52.086L27.8567 47.545C28.0779 47.3698 28.2587 47.1571 28.3888 46.9188C28.5189 46.6806 28.5957 46.4216 28.6149 46.1565C28.634 45.8915 28.5951 45.6257 28.5004 45.3742C28.4057 45.1227 28.257 44.8906 28.0628 44.691L27.9398 44.564C27.7463 44.3643 27.5108 44.2012 27.247 44.0841C26.9832 43.9671 26.6963 43.8984 26.4028 43.882C26.3508 43.878 26.302 43.876 26.2521 43.876Z" fill="#current"/>
<path d="M15.836 50.137C15.7385 50.137 15.6387 50.137 15.5401 50.128C14.6549 50.0777 13.8062 49.7916 13.1011 49.3061C12.396 48.8205 11.8663 48.1572 11.5788 47.4001C11.2913 46.6429 11.259 45.8258 11.486 45.052C11.713 44.2783 12.1891 43.5826 12.8541 43.053L16.4432 40.21C16.883 39.8614 17.3946 39.5944 17.9487 39.4243C18.5028 39.2542 19.0887 39.1843 19.6728 39.2186C20.2568 39.2528 20.8277 39.3906 21.3528 39.624C21.8778 39.8575 22.3468 40.182 22.7328 40.579L22.7716 40.619C23.1579 41.0159 23.4537 41.4775 23.6423 41.9776C23.8308 42.4777 23.9082 43.0064 23.8703 43.5335C23.8323 44.0606 23.6796 44.5757 23.421 45.0496C23.1623 45.5234 22.8027 45.9466 22.3627 46.295L18.7736 49.138C17.9627 49.784 16.9176 50.1394 15.836 50.137ZM19.3819 41.21C18.8392 41.2088 18.3146 41.3866 17.907 41.71L14.3179 44.553C14.0966 44.7282 13.9158 44.9409 13.7857 45.1792C13.6556 45.4174 13.5788 45.6764 13.5597 45.9415C13.5405 46.2065 13.5794 46.4723 13.6742 46.7238C13.7689 46.9753 13.9176 47.2074 14.1118 47.407C14.3044 47.6129 14.5404 47.7822 14.8061 47.9052C15.0718 48.0281 15.3619 48.1023 15.6596 48.1233C15.9572 48.1443 16.2566 48.1118 16.5402 48.0276C16.8239 47.9435 17.0862 47.8093 17.312 47.633L20.9011 44.79C21.1224 44.6149 21.3032 44.4021 21.4333 44.1638C21.5634 43.9256 21.6402 43.6666 21.6594 43.4015C21.6785 43.1365 21.6396 42.8707 21.5449 42.6192C21.4501 42.3678 21.3014 42.1356 21.1073 41.936L21.0685 41.896C20.8749 41.696 20.6393 41.5326 20.3753 41.4154C20.1113 41.2982 19.8241 41.2294 19.5304 41.213C19.4761 41.212 19.4263 41.21 19.3764 41.21H19.3819Z" fill="#current"/>
<path d="M13.8259 44.612C13.586 44.6124 13.3526 44.5422 13.161 44.412L9.3746 41.812C9.25877 41.7325 9.16143 41.6331 9.08813 41.5197C9.01483 41.4062 8.96702 41.2808 8.94741 41.1507C8.92781 41.0206 8.93681 40.8882 8.97389 40.7612C9.01096 40.6342 9.0754 40.515 9.16351 40.4105C9.34146 40.1994 9.60505 40.0607 9.8963 40.025C10.0405 40.0073 10.1872 40.0154 10.3279 40.0489C10.4686 40.0823 10.6007 40.1405 10.7165 40.22L14.5029 42.82C14.6894 42.9462 14.8271 43.1223 14.8963 43.3233C14.9655 43.5242 14.9627 43.7397 14.8883 43.9391C14.8139 44.1385 14.6717 44.3116 14.4819 44.4339C14.2922 44.5561 14.0646 44.6213 13.8314 44.62L13.8259 44.612Z" fill="#current"/>
<path d="M64.8454 45.72C64.6262 45.7199 64.412 45.6613 64.2299 45.5514C64.0477 45.4415 63.9057 45.2853 63.8218 45.1026C63.738 44.9199 63.716 44.7189 63.7588 44.5249C63.8015 44.331 63.907 44.1528 64.0619 44.013L70.2795 38.4C70.4885 38.2178 70.7685 38.117 71.059 38.1193C71.3495 38.1216 71.6275 38.2267 71.8329 38.4122C72.0384 38.5976 72.1549 38.8484 72.1574 39.1106C72.16 39.3728 72.0483 39.6254 71.8464 39.814L65.6288 45.425C65.5261 45.5182 65.4041 45.5922 65.2696 45.6429C65.1352 45.6935 64.991 45.7197 64.8454 45.72Z" fill="#current"/>
<path d="M73.3235 43.645C73.134 43.6452 72.9476 43.6016 72.7821 43.5182C72.6166 43.4349 72.4776 43.3147 72.3783 43.169L58.8483 23.309C58.7053 23.0989 58.6534 22.8486 58.7025 22.6061C58.7516 22.3635 58.8982 22.1459 59.1142 21.995L72.5146 12.629C72.6617 12.5262 72.8351 12.4585 73.0188 12.4321C73.2026 12.4057 73.3907 12.4214 73.5659 12.4779C73.7411 12.5344 73.8978 12.6298 74.0214 12.7553C74.145 12.8808 74.2316 13.0324 74.2732 13.196L80.8631 39.143C80.9178 39.3542 80.8949 39.5756 80.798 39.774C80.701 39.9724 80.5353 40.137 80.3256 40.243L73.8643 43.52C73.6989 43.6029 73.5127 43.6459 73.3235 43.645ZM61.2573 23.025L73.708 41.3L78.5183 38.86L72.5013 15.168L61.2573 23.025Z" fill="#current"/>
<path d="M8.6765 44C8.48672 43.9999 8.30013 43.9558 8.13464 43.872L1.67326 40.6C1.46364 40.494 1.29787 40.3294 1.20093 40.131C1.104 39.9326 1.08115 39.7111 1.13583 39.5L7.72686 13.556C7.76846 13.3923 7.85505 13.2408 7.97865 13.1153C8.10225 12.9898 8.25888 12.8944 8.43408 12.8379C8.60929 12.7814 8.79744 12.7656 8.98118 12.792C9.16491 12.8185 9.33833 12.8862 9.48542 12.989L22.8869 22.354C23.1029 22.5049 23.2495 22.7225 23.2986 22.965C23.3477 23.2076 23.2958 23.4579 23.1528 23.668L9.62172 43.528C9.52188 43.6729 9.38261 43.7924 9.21716 43.875C9.05171 43.9576 8.86559 44.0006 8.6765 44ZM3.48169 39.222L8.29199 41.661L20.7427 23.385L9.49872 15.528L3.48169 39.222Z" fill="#current"/>
</svg>
