<svg width="52" height="50" viewBox="0 0 52 50" fill="none" xmlns="http://www.w3.org/2000/svg">
<path d="M48.4865 48.6487H3.5135C2.9544 48.6487 2.41819 48.4351 2.02285 48.055C1.6275 47.6748 1.4054 47.1592 1.4054 46.6216V15.5405C1.4054 15.3613 1.47943 15.1895 1.61121 15.0628C1.74299 14.9361 1.92173 14.8649 2.1081 14.8649H49.8919C50.0783 14.8649 50.257 14.9361 50.3888 15.0628C50.5205 15.1895 50.5946 15.3613 50.5946 15.5405V46.6216C50.5946 47.1592 50.3725 47.6748 49.9771 48.055C49.5818 48.4351 49.0456 48.6487 48.4865 48.6487ZM2.8108 16.2162V46.6216C2.8108 46.8008 2.88484 46.9727 3.01662 47.0994C3.1484 47.2261 3.32714 47.2973 3.5135 47.2973H48.4865C48.6728 47.2973 48.8516 47.2261 48.9834 47.0994C49.1151 46.9727 49.1892 46.8008 49.1892 46.6216V16.2162H2.8108Z" fill="#AEAEAE"/>
<path d="M49.8919 16.2162H2.1081C1.92173 16.2162 1.74299 16.145 1.61121 16.0183C1.47943 15.8916 1.4054 15.7197 1.4054 15.5405V7.81755C1.4054 7.27995 1.6275 6.76437 2.02285 6.38423C2.41819 6.00409 2.9544 5.79053 3.5135 5.79053H10.667C10.8534 5.79053 11.0321 5.86171 11.1639 5.98843C11.2957 6.11514 11.3697 6.287 11.3697 6.4662C11.3697 6.6454 11.2957 6.81726 11.1639 6.94398C11.0321 7.07069 10.8534 7.14188 10.667 7.14188H3.5135C3.32714 7.14188 3.1484 7.21307 3.01662 7.33978C2.88484 7.46649 2.8108 7.63835 2.8108 7.81755V14.8649H49.1892V7.81755C49.1892 7.63835 49.1151 7.46649 48.9834 7.33978C48.8516 7.21307 48.6728 7.14188 48.4865 7.14188H41.333C41.1466 7.14188 40.9679 7.07069 40.8361 6.94398C40.7043 6.81726 40.6303 6.6454 40.6303 6.4662C40.6303 6.287 40.7043 6.11514 40.8361 5.98843C40.9679 5.86171 41.1466 5.79053 41.333 5.79053H48.4865C49.0456 5.79053 49.5818 6.00409 49.9771 6.38423C50.3725 6.76437 50.5946 7.27995 50.5946 7.81755V15.5405C50.5946 15.7197 50.5205 15.8916 50.3888 16.0183C50.257 16.145 50.0783 16.2162 49.8919 16.2162Z" fill="#AEAEAE"/>
<path d="M37.0184 7.14188H14.9816C14.7952 7.14188 14.6165 7.07069 14.4847 6.94398C14.3529 6.81726 14.2789 6.6454 14.2789 6.4662C14.2789 6.287 14.3529 6.11514 14.4847 5.98843C14.6165 5.86171 14.7952 5.79053 14.9816 5.79053H37.0184C37.2047 5.79053 37.3835 5.86171 37.5152 5.98843C37.647 6.11514 37.7211 6.287 37.7211 6.4662C37.7211 6.6454 37.647 6.81726 37.5152 6.94398C37.3835 7.07069 37.2047 7.14188 37.0184 7.14188Z" fill="#AEAEAE"/>
<path d="M39.1757 11.5764C38.418 11.5757 37.6915 11.2859 37.1557 10.7707C36.6199 10.2555 36.3186 9.557 36.3178 8.82841V4.09868C36.3178 3.36987 36.6189 2.67092 37.1549 2.15557C37.6908 1.64023 38.4177 1.35071 39.1757 1.35071C39.9337 1.35071 40.6606 1.64023 41.1965 2.15557C41.7325 2.67092 42.0336 3.36987 42.0336 4.09868V8.82841C42.0329 9.557 41.7315 10.2555 41.1957 10.7707C40.6599 11.2859 39.9334 11.5757 39.1757 11.5764ZM39.1757 2.70274C38.7906 2.70309 38.4214 2.85035 38.1491 3.11219C37.8767 3.37403 37.7236 3.72906 37.7232 4.09936V8.82909C37.7232 9.19949 37.8762 9.55473 38.1486 9.81665C38.421 10.0786 38.7905 10.2257 39.1757 10.2257C39.5609 10.2257 39.9304 10.0786 40.2028 9.81665C40.4752 9.55473 40.6282 9.19949 40.6282 8.82909V4.09936C40.6278 3.72906 40.4747 3.37403 40.2024 3.11219C39.93 2.85035 39.5608 2.70309 39.1757 2.70274Z" fill="#AEAEAE"/>
<path d="M12.8243 11.5764C12.0666 11.5757 11.3401 11.2859 10.8043 10.7707C10.2685 10.2555 9.96717 9.557 9.96643 8.82841V4.09868C9.96643 3.36987 10.2675 2.67092 10.8035 2.15557C11.3394 1.64023 12.0664 1.35071 12.8243 1.35071C13.5823 1.35071 14.3092 1.64023 14.8452 2.15557C15.3811 2.67092 15.6822 3.36987 15.6822 4.09868V8.82841C15.6815 9.557 15.3801 10.2555 14.8443 10.7707C14.3085 11.2859 13.5821 11.5757 12.8243 11.5764ZM12.8243 2.70274C12.4392 2.70309 12.07 2.85035 11.7977 3.11219C11.5254 3.37403 11.3722 3.72906 11.3718 4.09936V8.82909C11.3718 9.19949 11.5249 9.55473 11.7973 9.81665C12.0697 10.0786 12.4391 10.2257 12.8243 10.2257C13.2095 10.2257 13.579 10.0786 13.8514 9.81665C14.1238 9.55473 14.2768 9.19949 14.2768 8.82909V4.09936C14.2764 3.72906 14.1233 3.37403 13.851 3.11219C13.5787 2.85035 13.2094 2.70309 12.8243 2.70274Z" fill="#AEAEAE"/>
<path d="M42.704 22.7196H41.061C40.8747 22.7196 40.6959 22.6485 40.5642 22.5217C40.4324 22.395 40.3583 22.2232 40.3583 22.044C40.3583 21.8648 40.4324 21.6929 40.5642 21.5662C40.6959 21.4395 40.8747 21.3683 41.061 21.3683H42.704C42.8903 21.3683 43.0691 21.4395 43.2008 21.5662C43.3326 21.6929 43.4067 21.8648 43.4067 22.044C43.4067 22.2232 43.3326 22.395 43.2008 22.5217C43.0691 22.6485 42.8903 22.7196 42.704 22.7196Z" fill="#AEAEAE"/>
<path d="M34.7627 22.7196H33.1198C32.9334 22.7196 32.7547 22.6485 32.6229 22.5217C32.4911 22.395 32.4171 22.2232 32.4171 22.044C32.4171 21.8648 32.4911 21.6929 32.6229 21.5662C32.7547 21.4395 32.9334 21.3683 33.1198 21.3683H34.7627C34.9491 21.3683 35.1278 21.4395 35.2596 21.5662C35.3914 21.6929 35.4654 21.8648 35.4654 22.044C35.4654 22.2232 35.3914 22.395 35.2596 22.5217C35.1278 22.6485 34.9491 22.7196 34.7627 22.7196Z" fill="#AEAEAE"/>
<path d="M26.8214 22.7196H25.1785C24.9922 22.7196 24.8134 22.6485 24.6816 22.5217C24.5499 22.395 24.4758 22.2232 24.4758 22.044C24.4758 21.8648 24.5499 21.6929 24.6816 21.5662C24.8134 21.4395 24.9922 21.3683 25.1785 21.3683H26.8214C27.0078 21.3683 27.1865 21.4395 27.3183 21.5662C27.4501 21.6929 27.5241 21.8648 27.5241 22.044C27.5241 22.2232 27.4501 22.395 27.3183 22.5217C27.1865 22.6485 27.0078 22.7196 26.8214 22.7196Z" fill="#AEAEAE"/>
<path d="M42.704 29.1946H41.061C40.8747 29.1946 40.6959 29.1234 40.5642 28.9967C40.4324 28.87 40.3583 28.6981 40.3583 28.5189C40.3583 28.3397 40.4324 28.1679 40.5642 28.0412C40.6959 27.9144 40.8747 27.8433 41.061 27.8433H42.704C42.8903 27.8433 43.0691 27.9144 43.2008 28.0412C43.3326 28.1679 43.4067 28.3397 43.4067 28.5189C43.4067 28.6981 43.3326 28.87 43.2008 28.9967C43.0691 29.1234 42.8903 29.1946 42.704 29.1946Z" fill="#AEAEAE"/>
<path d="M34.7627 29.1946H33.1198C32.9334 29.1946 32.7547 29.1234 32.6229 28.9967C32.4911 28.87 32.4171 28.6981 32.4171 28.5189C32.4171 28.3397 32.4911 28.1679 32.6229 28.0412C32.7547 27.9144 32.9334 27.8433 33.1198 27.8433H34.7627C34.9491 27.8433 35.1278 27.9144 35.2596 28.0412C35.3914 28.1679 35.4654 28.3397 35.4654 28.5189C35.4654 28.6981 35.3914 28.87 35.2596 28.9967C35.1278 29.1234 34.9491 29.1946 34.7627 29.1946Z" fill="#AEAEAE"/>
<path d="M26.8214 29.1946H25.1785C24.9922 29.1946 24.8134 29.1234 24.6816 28.9967C24.5499 28.87 24.4758 28.6981 24.4758 28.5189C24.4758 28.3397 24.5499 28.1679 24.6816 28.0412C24.8134 27.9144 24.9922 27.8433 25.1785 27.8433H26.8214C27.0078 27.8433 27.1865 27.9144 27.3183 28.0412C27.4501 28.1679 27.5241 28.3397 27.5241 28.5189C27.5241 28.6981 27.4501 28.87 27.3183 28.9967C27.1865 29.1234 27.0078 29.1946 26.8214 29.1946Z" fill="#AEAEAE"/>
<path d="M18.8802 29.1946H17.2373C17.0509 29.1946 16.8722 29.1234 16.7404 28.9967C16.6086 28.87 16.5346 28.6981 16.5346 28.5189C16.5346 28.3397 16.6086 28.1679 16.7404 28.0412C16.8722 27.9144 17.0509 27.8433 17.2373 27.8433H18.8802C19.0666 27.8433 19.2453 27.9144 19.3771 28.0412C19.5089 28.1679 19.5829 28.3397 19.5829 28.5189C19.5829 28.6981 19.5089 28.87 19.3771 28.9967C19.2453 29.1234 19.0666 29.1946 18.8802 29.1946Z" fill="#AEAEAE"/>
<path d="M10.939 29.1946H9.29606C9.10969 29.1946 8.93095 29.1234 8.79917 28.9967C8.66739 28.87 8.59335 28.6981 8.59335 28.5189C8.59335 28.3397 8.66739 28.1679 8.79917 28.0412C8.93095 27.9144 9.10969 27.8433 9.29606 27.8433H10.939C11.1253 27.8433 11.3041 27.9144 11.4359 28.0412C11.5676 28.1679 11.6417 28.3397 11.6417 28.5189C11.6417 28.6981 11.5676 28.87 11.4359 28.9967C11.3041 29.1234 11.1253 29.1946 10.939 29.1946Z" fill="#AEAEAE"/>
<path d="M42.704 35.6703H41.061C40.8747 35.6703 40.6959 35.5991 40.5642 35.4724C40.4324 35.3457 40.3583 35.1738 40.3583 34.9946C40.3583 34.8154 40.4324 34.6436 40.5642 34.5169C40.6959 34.3902 40.8747 34.319 41.061 34.319H42.704C42.8903 34.319 43.0691 34.3902 43.2008 34.5169C43.3326 34.6436 43.4067 34.8154 43.4067 34.9946C43.4067 35.1738 43.3326 35.3457 43.2008 35.4724C43.0691 35.5991 42.8903 35.6703 42.704 35.6703Z" fill="#AEAEAE"/>
<path d="M34.7627 35.6703H33.1198C32.9334 35.6703 32.7547 35.5991 32.6229 35.4724C32.4911 35.3457 32.4171 35.1738 32.4171 34.9946C32.4171 34.8154 32.4911 34.6436 32.6229 34.5169C32.7547 34.3902 32.9334 34.319 33.1198 34.319H34.7627C34.9491 34.319 35.1278 34.3902 35.2596 34.5169C35.3914 34.6436 35.4654 34.8154 35.4654 34.9946C35.4654 35.1738 35.3914 35.3457 35.2596 35.4724C35.1278 35.5991 34.9491 35.6703 34.7627 35.6703Z" fill="#AEAEAE"/>
<path d="M26.8214 35.6703H25.1785C24.9922 35.6703 24.8134 35.5991 24.6816 35.4724C24.5499 35.3457 24.4758 35.1738 24.4758 34.9946C24.4758 34.8154 24.5499 34.6436 24.6816 34.5169C24.8134 34.3902 24.9922 34.319 25.1785 34.319H26.8214C27.0078 34.319 27.1865 34.3902 27.3183 34.5169C27.4501 34.6436 27.5241 34.8154 27.5241 34.9946C27.5241 35.1738 27.4501 35.3457 27.3183 35.4724C27.1865 35.5991 27.0078 35.6703 26.8214 35.6703Z" fill="#AEAEAE"/>
<path d="M18.8802 35.6703H17.2373C17.0509 35.6703 16.8722 35.5991 16.7404 35.4724C16.6086 35.3457 16.5346 35.1738 16.5346 34.9946C16.5346 34.8154 16.6086 34.6436 16.7404 34.5169C16.8722 34.3902 17.0509 34.319 17.2373 34.319H18.8802C19.0666 34.319 19.2453 34.3902 19.3771 34.5169C19.5089 34.6436 19.5829 34.8154 19.5829 34.9946C19.5829 35.1738 19.5089 35.3457 19.3771 35.4724C19.2453 35.5991 19.0666 35.6703 18.8802 35.6703Z" fill="#AEAEAE"/>
<path d="M10.939 35.6703H9.29606C9.10969 35.6703 8.93095 35.5991 8.79917 35.4724C8.66739 35.3457 8.59335 35.1738 8.59335 34.9946C8.59335 34.8154 8.66739 34.6436 8.79917 34.5169C8.93095 34.3902 9.10969 34.319 9.29606 34.319H10.939C11.1253 34.319 11.3041 34.3902 11.4359 34.5169C11.5676 34.6436 11.6417 34.8154 11.6417 34.9946C11.6417 35.1738 11.5676 35.3457 11.4359 35.4724C11.3041 35.5991 11.1253 35.6703 10.939 35.6703Z" fill="#AEAEAE"/>
<path d="M26.8214 42.1453H25.1785C24.9922 42.1453 24.8134 42.0741 24.6816 41.9474C24.5499 41.8207 24.4758 41.6488 24.4758 41.4696C24.4758 41.2904 24.5499 41.1186 24.6816 40.9918C24.8134 40.8651 24.9922 40.7939 25.1785 40.7939H26.8214C27.0078 40.7939 27.1865 40.8651 27.3183 40.9918C27.4501 41.1186 27.5241 41.2904 27.5241 41.4696C27.5241 41.6488 27.4501 41.8207 27.3183 41.9474C27.1865 42.0741 27.0078 42.1453 26.8214 42.1453Z" fill="#AEAEAE"/>
<path d="M18.8802 42.1453H17.2373C17.0509 42.1453 16.8722 42.0741 16.7404 41.9474C16.6086 41.8207 16.5346 41.6488 16.5346 41.4696C16.5346 41.2904 16.6086 41.1186 16.7404 40.9918C16.8722 40.8651 17.0509 40.7939 17.2373 40.7939H18.8802C19.0666 40.7939 19.2453 40.8651 19.3771 40.9918C19.5089 41.1186 19.5829 41.2904 19.5829 41.4696C19.5829 41.6488 19.5089 41.8207 19.3771 41.9474C19.2453 42.0741 19.0666 42.1453 18.8802 42.1453Z" fill="#AEAEAE"/>
<path d="M10.939 42.1453H9.29606C9.10969 42.1453 8.93095 42.0741 8.79917 41.9474C8.66739 41.8207 8.59335 41.6488 8.59335 41.4696C8.59335 41.2904 8.66739 41.1186 8.79917 40.9918C8.93095 40.8651 9.10969 40.7939 9.29606 40.7939H10.939C11.1253 40.7939 11.3041 40.8651 11.4359 40.9918C11.5676 41.1186 11.6417 41.2904 11.6417 41.4696C11.6417 41.6488 11.5676 41.8207 11.4359 41.9474C11.3041 42.0741 11.1253 42.1453 10.939 42.1453Z" fill="#AEAEAE"/>
</svg>
