<svg width="52" height="49" viewBox="0 0 52 49" fill="current" stroke="current" xmlns="http://www.w3.org/2000/svg">
<path d="M49.8333 26.4993H2.16667C0.970662 26.4993 0 25.5847 0 24.4577C0 23.3307 0.970662 22.416 2.16667 22.416H49.8333C51.0293 22.416 52 23.3307 52 24.4577C52 25.5847 51.0293 26.4993 49.8333 26.4993Z" fill="current"/>
<path d="M49.8333 10.8463H2.16667C0.970662 10.8463 0 9.93161 0 8.80461C0 7.6776 0.970662 6.76294 2.16667 6.76294H49.8333C51.0293 6.76294 52 7.6776 52 8.80461C52 9.93161 51.0293 10.8463 49.8333 10.8463Z" fill="current"/>
<path d="M49.8333 42.1517H2.16667C0.970662 42.1517 0 41.237 0 40.11C0 38.983 0.970662 38.0684 2.16667 38.0684H49.8333C51.0293 38.0684 52 38.983 52 40.11C52 41.237 51.0293 42.1517 49.8333 42.1517Z" fill="current"/>
</svg>
