<svg width="52" height="52" viewBox="0 0 52 52" xmlns="http://www.w3.org/2000/svg">
<path d="M25.6588 24.9073C32.3787 24.9073 37.8257 19.6695 37.8257 13.2084C37.8257 6.74757 32.3787 1.50952 25.6588 1.50952C18.9396 1.50952 13.492 6.74757 13.492 13.2084C13.4972 19.6673 18.9415 24.9023 25.6588 24.9073ZM25.6588 3.49233C31.2397 3.49233 35.7635 7.84217 35.7635 13.2084C35.7635 18.5746 31.2397 22.9244 25.6588 22.9244C20.0786 22.9244 15.5541 18.5746 15.5541 13.2084C15.5635 7.8462 20.0822 3.50102 25.6588 3.49233Z" fill="current"/>
<path d="M25.6588 27.832C20.3697 27.832 15.4511 29.8049 11.8014 33.3941C8.09961 37.0326 6.06815 41.9994 6.06815 47.3932C6.06976 47.9401 6.53066 48.3829 7.09937 48.3845H44.2186C44.7876 48.3829 45.2479 47.9401 45.2495 47.3932C45.2495 42.0096 43.2183 37.0326 39.5169 33.404C35.8668 29.8148 30.9486 27.832 25.6588 27.832ZM8.15125 46.4017C8.37815 41.9206 10.1824 37.8258 13.2654 34.7919C16.5237 31.5894 20.9265 29.8251 25.6488 29.8251C30.3711 29.8251 34.7739 31.5894 38.0319 34.7919C41.1252 37.8258 42.9195 41.9206 43.1464 46.4017H8.15125Z" fill="current"/>
</svg>
