<svg width="52" height="49" viewBox="0 0 52 49" fill="none" xmlns="http://www.w3.org/2000/svg">
<g clip-path="url(#clip0)">
<path d="M43.2898 26.4117C42.4331 26.4117 41.7389 27.066 41.7389 27.8731V42.7027H10.2632V27.8731C10.2632 27.066 9.56903 26.4117 8.71235 26.4117C7.85568 26.4117 7.16153 27.066 7.16153 27.8731V44.1641C7.16153 44.9711 7.85568 45.6254 8.71235 45.6254H43.2898C44.1464 45.6254 44.8406 44.9711 44.8406 44.1641V27.8731C44.8406 27.066 44.1462 26.4117 43.2898 26.4117Z" fill="#AEAEAE"/>
<path d="M51.5461 26.8398L27.0953 3.80247C26.4899 3.23176 25.5079 3.23196 24.9023 3.80247L0.454633 26.8398C-0.151016 27.4105 -0.151016 28.3359 0.454633 28.9064C0.757561 29.1916 1.15457 29.3345 1.55138 29.3345C1.94839 29.3345 2.34519 29.1918 2.64812 28.9064L25.9992 6.90229L49.3532 28.9064C49.9586 29.4771 50.9406 29.4769 51.5465 28.9062C52.1517 28.3357 52.1517 27.4104 51.5461 26.8398Z" fill="#AEAEAE"/>
</g>
<defs>
<clipPath id="clip0">
<rect width="52" height="49" fill="white"/>
</clipPath>
</defs>
</svg>
