<svg width="70" height="70" viewBox="0 0 70 70" fill="none" xmlns="http://www.w3.org/2000/svg">
<path d="M40.3869 49.1057C40.2801 49.106 40.1745 49.0842 40.0765 49.0419C39.9785 48.9995 39.8903 48.9374 39.8173 48.8595C39.7444 48.7816 39.6882 48.6895 39.6524 48.5889C39.6166 48.4884 39.6018 48.3815 39.6091 48.275L40.1388 40.3985C40.1472 40.2783 40.1834 40.1616 40.2445 40.0578L52.7139 18.8113C53.1636 18.0467 53.8982 17.4917 54.7566 17.268C55.615 17.0444 56.527 17.1703 57.2927 17.6181L58.9509 18.5888C59.3299 18.8111 59.6615 19.1058 59.9266 19.4562C60.1917 19.8067 60.3851 20.2059 60.4958 20.6311C60.6066 21.0564 60.6324 21.4992 60.5719 21.9345C60.5114 22.3697 60.3657 22.7887 60.1432 23.1676L47.6778 44.4165C47.617 44.5207 47.5326 44.6092 47.4312 44.6747L40.8139 48.9797C40.6869 49.0624 40.5384 49.1062 40.3869 49.1057ZM41.6811 40.687L41.2681 46.8268L46.4263 43.4715L58.8 22.3828C58.9191 22.1801 58.9971 21.9558 59.0295 21.7229C59.0619 21.49 59.048 21.253 58.9887 21.0254C58.9294 20.7979 58.8258 20.5842 58.6838 20.3968C58.5419 20.2093 58.3644 20.0516 58.1614 19.9328L56.5056 18.9598C56.0959 18.7202 55.608 18.6528 55.1487 18.7723C54.6895 18.8919 54.2964 19.1887 54.0555 19.5976L41.6811 40.687Z" fill="#current"/>
<path d="M47.0042 44.7999C46.8658 44.8001 46.7298 44.763 46.6107 44.6926L40.5222 41.1218C40.346 41.0166 40.2185 40.846 40.1675 40.6471C40.1165 40.4483 40.1462 40.2374 40.25 40.0604C40.3539 39.8833 40.5235 39.7545 40.7219 39.702C40.9204 39.6495 41.1315 39.6776 41.3093 39.7801L47.397 43.3524C47.5445 43.4388 47.6595 43.5713 47.7241 43.7296C47.7887 43.8878 47.7994 44.063 47.7545 44.2279C47.7097 44.3928 47.6117 44.5384 47.4758 44.6421C47.3399 44.7457 47.1736 44.8017 47.0027 44.8014L47.0042 44.7999Z" fill="#current"/>
<path d="M57.8472 26.3232C57.7104 26.3227 57.5761 26.2856 57.4584 26.2158L51.3707 22.6435C51.2804 22.5929 51.2012 22.5248 51.1376 22.4432C51.0739 22.3616 51.0273 22.2681 51.0002 22.1682C50.9732 22.0684 50.9664 21.9641 50.9801 21.8615C50.9939 21.759 51.028 21.6602 51.0804 21.571C51.1328 21.4818 51.2025 21.4039 51.2854 21.342C51.3683 21.2801 51.4627 21.2353 51.5631 21.2103C51.6635 21.1853 51.7679 21.1806 51.8701 21.1964C51.9724 21.2123 52.0704 21.2484 52.1586 21.3026L58.2455 24.8742C58.393 24.9605 58.5079 25.0931 58.5726 25.2513C58.6372 25.4096 58.6479 25.5847 58.603 25.7496C58.5581 25.9146 58.4602 26.0601 58.3243 26.1638C58.1883 26.2675 58.0221 26.3235 57.8511 26.3232H57.8472Z" fill="#current"/>
<path d="M46.6441 60.6667H14.8641C14.2084 60.6659 13.5798 60.405 13.1161 59.9414C12.6524 59.4777 12.3916 58.8491 12.3908 58.1934V11.8067C12.3916 11.151 12.6524 10.5224 13.1161 10.0587C13.5798 9.59504 14.2084 9.3342 14.8641 9.33337H46.6441C47.2998 9.3342 47.9284 9.59504 48.3921 10.0587C48.8558 10.5224 49.1166 11.151 49.1174 11.8067V27.8025C49.1174 28.0088 49.0355 28.2066 48.8896 28.3525C48.7438 28.4983 48.5459 28.5803 48.3396 28.5803C48.1334 28.5803 47.9355 28.4983 47.7897 28.3525C47.6438 28.2066 47.5619 28.0088 47.5619 27.8025V11.8067C47.5617 11.5634 47.4649 11.33 47.2928 11.158C47.1208 10.9859 46.8874 10.8891 46.6441 10.8889H14.8641C14.6208 10.8891 14.3874 10.9859 14.2154 11.158C14.0433 11.33 13.9465 11.5634 13.9463 11.8067V58.1934C13.9465 58.4367 14.0433 58.67 14.2154 58.8421C14.3874 59.0142 14.6208 59.1109 14.8641 59.1112H46.6441C46.8874 59.1109 47.1208 59.0142 47.2928 58.8421C47.4649 58.67 47.5617 58.4367 47.5619 58.1934V41.7496C47.5619 41.5433 47.6438 41.3455 47.7897 41.1996C47.9355 41.0538 48.1334 40.9718 48.3396 40.9718C48.5459 40.9718 48.7438 41.0538 48.8896 41.1996C49.0355 41.3455 49.1174 41.5433 49.1174 41.7496V58.1934C49.1166 58.8491 48.8558 59.4777 48.3921 59.9414C47.9284 60.405 47.2998 60.6659 46.6441 60.6667Z" fill="#current"/>
<path d="M17.3686 21.5141C16.8128 21.5155 16.2691 21.3519 15.8064 21.044C15.3438 20.7361 14.9829 20.2978 14.7696 19.7846C14.5563 19.2714 14.5001 18.7064 14.6082 18.1612C14.7162 17.6161 14.9837 17.1153 15.3767 16.7223C15.7697 16.3293 16.2705 16.0618 16.8157 15.9537C17.3608 15.8457 17.9258 15.9018 18.439 16.1152C18.9522 16.3285 19.3905 16.6893 19.6984 17.152C20.0063 17.6147 20.1699 18.1584 20.1686 18.7141C20.1661 19.456 19.8703 20.1668 19.3457 20.6913C18.8212 21.2159 18.1104 21.5117 17.3686 21.5141ZM17.3686 17.4565C17.1209 17.4551 16.8784 17.5272 16.6718 17.6637C16.4652 17.8002 16.3037 17.9949 16.2078 18.2233C16.1119 18.4516 16.0859 18.7032 16.133 18.9463C16.1802 19.1894 16.2985 19.4131 16.4728 19.5889C16.6472 19.7648 16.8698 19.885 17.1125 19.9343C17.3551 19.9836 17.607 19.9598 17.8361 19.8659C18.0653 19.772 18.2614 19.6122 18.3997 19.4067C18.538 19.2013 18.6122 18.9595 18.613 18.7118C18.6126 18.3809 18.4817 18.0635 18.2487 17.8284C18.0157 17.5934 17.6995 17.4598 17.3686 17.4565Z" fill="#current"/>
<path d="M15.3354 19.4895H10.1741C9.96783 19.4895 9.77 19.4076 9.62414 19.2617C9.47828 19.1158 9.39633 18.918 9.39633 18.7117C9.39633 18.5055 9.47828 18.3076 9.62414 18.1618C9.77 18.0159 9.96783 17.934 10.1741 17.934H15.3354C15.5417 17.934 15.7395 18.0159 15.8854 18.1618C16.0313 18.3076 16.1132 18.5055 16.1132 18.7117C16.1132 18.918 16.0313 19.1158 15.8854 19.2617C15.7395 19.4076 15.5417 19.4895 15.3354 19.4895Z" fill="#current"/>
<path d="M17.3686 32.3757C16.8128 32.3771 16.2691 32.2135 15.8064 31.9056C15.3438 31.5977 14.9829 31.1593 14.7696 30.6461C14.5563 30.1329 14.5001 29.568 14.6082 29.0228C14.7162 28.4777 14.9837 27.9769 15.3767 27.5839C15.7697 27.1909 16.2705 26.9234 16.8157 26.8153C17.3608 26.7072 17.9258 26.7634 18.439 26.9767C18.9522 27.1901 19.3905 27.5509 19.6984 28.0136C20.0063 28.4763 20.1699 29.0199 20.1686 29.5757C20.1661 30.3176 19.8703 31.0283 19.3457 31.5529C18.8212 32.0775 18.1104 32.3732 17.3686 32.3757ZM17.3686 28.318C17.1209 28.3167 16.8784 28.3888 16.6717 28.5253C16.4651 28.6619 16.3036 28.8566 16.2077 29.085C16.1118 29.3134 16.0859 29.565 16.1331 29.8082C16.1803 30.0513 16.2987 30.2749 16.4731 30.4508C16.6475 30.6266 16.8702 30.7468 17.1129 30.796C17.3557 30.8452 17.6075 30.8212 17.8367 30.7272C18.0658 30.6332 18.2619 30.4733 18.4001 30.2677C18.5383 30.0622 18.6124 29.8203 18.613 29.5726C18.6124 29.2418 18.4814 28.9246 18.2485 28.6897C18.0155 28.4549 17.6993 28.3213 17.3686 28.318Z" fill="#current"/>
<path d="M15.3354 30.3505H10.1741C9.96783 30.3505 9.77 30.2685 9.62414 30.1227C9.47828 29.9768 9.39633 29.779 9.39633 29.5727C9.39633 29.3664 9.47828 29.1686 9.62414 29.0227C9.77 28.8769 9.96783 28.7949 10.1741 28.7949H15.3354C15.5417 28.7949 15.7395 28.8769 15.8854 29.0227C16.0313 29.1686 16.1132 29.3664 16.1132 29.5727C16.1132 29.779 16.0313 29.9768 15.8854 30.1227C15.7395 30.2685 15.5417 30.3505 15.3354 30.3505Z" fill="#current"/>
<path d="M17.3686 43.2374C16.813 43.2388 16.2695 43.0753 15.8069 42.7675C15.3443 42.4598 14.9834 42.0217 14.77 41.5087C14.5565 40.9958 14.5001 40.431 14.6079 39.8859C14.7156 39.3409 14.9827 38.8401 15.3753 38.4469C15.7679 38.0538 16.2684 37.786 16.8133 37.6775C17.3582 37.569 17.923 37.6246 18.4363 37.8373C18.9496 38.05 19.3882 38.4103 19.6965 38.8725C20.0049 39.3346 20.1692 39.8779 20.1686 40.4335C20.1669 41.176 19.8715 41.8876 19.3469 42.413C18.8223 42.9383 18.111 43.2347 17.3686 43.2374ZM17.3686 39.1797C17.1209 39.1784 16.8783 39.2505 16.6716 39.3871C16.465 39.5236 16.3035 39.7185 16.2076 39.9469C16.1118 40.1753 16.0858 40.427 16.1332 40.6702C16.1805 40.9133 16.2989 41.1369 16.4734 41.3128C16.6479 41.4886 16.8706 41.6086 17.1134 41.6578C17.3562 41.7069 17.6081 41.6828 17.8372 41.5887C18.0663 41.4945 18.2624 41.3345 18.4005 41.1289C18.5386 40.9232 18.6125 40.6812 18.613 40.4335C18.6124 40.1028 18.4814 39.7856 18.2484 39.5509C18.0154 39.3162 17.6993 39.1828 17.3686 39.1797Z" fill="#current"/>
<path d="M15.3354 41.2113H10.1741C9.96783 41.2113 9.77 41.1294 9.62414 40.9835C9.47828 40.8377 9.39633 40.6398 9.39633 40.4335C9.39633 40.2273 9.47828 40.0294 9.62414 39.8836C9.77 39.7377 9.96783 39.6558 10.1741 39.6558H15.3354C15.5417 39.6558 15.7395 39.7377 15.8854 39.8836C16.0313 40.0294 16.1132 40.2273 16.1132 40.4335C16.1132 40.6398 16.0313 40.8377 15.8854 40.9835C15.7395 41.1294 15.5417 41.2113 15.3354 41.2113Z" fill="#current"/>
<path d="M17.3686 54.0991C16.813 54.1005 16.2695 53.937 15.8069 53.6292C15.3443 53.3215 14.9834 52.8834 14.77 52.3704C14.5565 51.8575 14.5001 51.2927 14.6079 50.7476C14.7156 50.2026 14.9827 49.7018 15.3753 49.3086C15.7679 48.9155 16.2684 48.6477 16.8133 48.5392C17.3582 48.4307 17.923 48.4863 18.4363 48.699C18.9496 48.9117 19.3882 49.272 19.6965 49.7342C20.0049 50.1963 20.1692 50.7396 20.1686 51.2952C20.1667 52.0376 19.8713 52.7491 19.3467 53.2745C18.8221 53.7998 18.111 54.0962 17.3686 54.0991ZM17.3686 50.0414C17.1209 50.04 16.8783 50.1122 16.6716 50.2488C16.465 50.3853 16.3035 50.5802 16.2076 50.8086C16.1118 51.037 16.0858 51.2887 16.1332 51.5318C16.1805 51.775 16.2989 51.9986 16.4734 52.1745C16.6479 52.3503 16.8706 52.4703 17.1134 52.5195C17.3562 52.5686 17.6081 52.5445 17.8372 52.4504C18.0663 52.3562 18.2624 52.1962 18.4005 51.9906C18.5386 51.7849 18.6125 51.5429 18.613 51.2952C18.6124 50.9645 18.4814 50.6473 18.2484 50.4126C18.0154 50.1779 17.6993 50.0445 17.3686 50.0414Z" fill="#current"/>
<path d="M15.3354 52.073H10.1741C9.96783 52.073 9.77 51.9911 9.62414 51.8452C9.47828 51.6993 9.39633 51.5015 9.39633 51.2952C9.39633 51.089 9.47828 50.8911 9.62414 50.7453C9.77 50.5994 9.96783 50.5175 10.1741 50.5175H15.3354C15.5417 50.5175 15.7395 50.5994 15.8854 50.7453C16.0313 50.8911 16.1132 51.089 16.1132 51.2952C16.1132 51.5015 16.0313 51.6993 15.8854 51.8452C15.7395 51.9911 15.5417 52.073 15.3354 52.073Z" fill="#current"/>
<path d="M34.0387 17.5949H24.2667C24.0604 17.5949 23.8626 17.5129 23.7167 17.3671C23.5708 17.2212 23.4889 17.0234 23.4889 16.8171C23.4889 16.6108 23.5708 16.413 23.7167 16.2671C23.8626 16.1213 24.0604 16.0393 24.2667 16.0393H34.0387C34.245 16.0393 34.4428 16.1213 34.5887 16.2671C34.7345 16.413 34.8165 16.6108 34.8165 16.8171C34.8165 17.0234 34.7345 17.2212 34.5887 17.3671C34.4428 17.5129 34.245 17.5949 34.0387 17.5949Z" fill="#current"/>
<path d="M43.4544 23.8878H24.2667C24.0604 23.8878 23.8626 23.8059 23.7167 23.66C23.5708 23.5142 23.4889 23.3163 23.4889 23.1101C23.4889 22.9038 23.5708 22.7059 23.7167 22.5601C23.8626 22.4142 24.0604 22.3323 24.2667 22.3323H43.4544C43.6607 22.3323 43.8586 22.4142 44.0044 22.5601C44.1503 22.7059 44.2322 22.9038 44.2322 23.1101C44.2322 23.3163 44.1503 23.5142 44.0044 23.66C43.8586 23.8059 43.6607 23.8878 43.4544 23.8878Z" fill="#current"/>
</svg>
