<svg width="32" height="32" viewBox="0 0 53 49" fill="none" xmlns="http://www.w3.org/2000/svg">
<path d="M52.4974 46.3342L38.8136 33.8853C42.397 30.286 44.5987 25.5258 44.5987 20.2877C44.597 9.08239 34.6141 0 22.2986 0C9.98318 0 0.000305176 9.08239 0.000305176 20.2877C0.000305176 31.493 9.98318 40.5753 22.2986 40.5753C27.6198 40.5753 32.5002 38.8737 36.3337 36.0448L50.0705 48.5428C50.7398 49.1524 51.8265 49.1524 52.4958 48.5428C53.1667 47.9332 53.1667 46.9438 52.4974 46.3342ZM22.2986 37.454C11.8784 37.454 3.43122 29.7684 3.43122 20.2877C3.43122 10.807 11.8784 3.12138 22.2986 3.12138C32.7189 3.12138 41.166 10.807 41.166 20.2877C41.166 29.7684 32.7189 37.454 22.2986 37.454Z" fill="current"/>
</svg>
